# xmcd
#
# Track frame offsets: 
#        150
#        14316
#        31981
#        44037
#        59697
#        72982
#        84544
#        97833
#        115409
#        131585
#        146660
#        160864
#
# Disc length: 2373 seconds
#
# Revision: 0
# Processed by: cddbd v1.4PL0 Copyright (c) Steve Scherf et al.
# Submitted via: ExactAudioCopy v0.95a4
#
DISCID=a809430c
DTITLE=J.R. Vautour - The New Me
DYEAR=2003
DGENRE=Country
TTITLE0=Addicted
TTITLE1=Jessie
TTITLE2=Kiss Me Goodbye
TTITLE3=Don't Know It Yet
TTITLE4=U Make me Love U
TTITLE5=The New Me
TTITLE6=I Wanna Say...
TTITLE7=Do You Remember?
TTITLE8=It's You
TTITLE9=That Woman Loves That Man
TTITLE10=Everytime
TTITLE11=Division 14
EXTD=
EXTT0=
EXTT1=
EXTT2=
EXTT3=
EXTT4=
EXTT5=
EXTT6=
EXTT7=
EXTT8=
EXTT9=
EXTT10=
EXTT11=
PLAYORDER=
